<?xml version="1.0" encoding="utf-8"?>
<!-- Generator: Adobe Illustrator 23.0.3, SVG Export Plug-In . SVG Version: 6.00 Build 0)  -->
<svg version="1.1" id="Layer_1" xmlns="http://www.w3.org/2000/svg" xmlns:xlink="http://www.w3.org/1999/xlink" x="0px" y="0px"
	 viewBox="0 0 74 74" style="enable-background:new 0 0 74 74;" xml:space="preserve">
<style type="text/css">
	.st0{fill:#006FAF;}
	.st1{fill:none;stroke:#006FAF;stroke-linecap:round;stroke-linejoin:round;stroke-miterlimit:10;}
</style>
<title>Cloud &amp;amp; Infrastructure Services</title>
<path class="st0" d="M37,74C16.6,74,0,57.4,0,37S16.6,0,37,0s37,16.6,37,37S57.4,74,37,74z M37,2C17.7,2,2,17.7,2,37s15.7,35,35,35
	s35-15.7,35-35S56.3,2,37,2z"/>
<g>
	<path class="st0" d="M27.2,45.2c-2.2,0-4.3-0.9-5.8-2.4S19,39.3,19,37.1s0.9-4.3,2.4-5.9c1.5-1.5,3.6-2.4,5.8-2.4
		c2.2,0,4.3,0.9,5.8,2.4l2.3,2.3c0.2,0.2,0.3,0.5,0.3,0.9c0,0.4-0.1,0.7-0.3,0.9s-0.5,0.3-0.9,0.3s-0.7-0.1-0.9-0.3L31.2,33
		c-1.1-1.1-2.5-1.7-4-1.7s-2.9,0.7-4,1.7c-1.1,1.1-1.6,2.4-1.6,3.9s0.5,3.1,1.6,4.1c1.1,1.1,2.5,1.7,4,1.7s2.9-0.5,4-1.7l9.8-9.8
		c1.5-1.5,3.6-2.4,5.8-2.4s4.3,0.9,5.8,2.3c1.5,1.5,2.4,3.5,2.4,5.7c0,2.2-0.9,4.3-2.4,5.9c-1.5,1.5-3.6,2.4-5.8,2.4
		s-4.3-0.9-5.8-2.4l-2.2-2.4c-0.2-0.2-0.3-0.5-0.3-0.9c0-0.3,0.1-0.7,0.3-0.9s0.5-0.3,0.9-0.3c0.3,0,0.7,0.1,0.9,0.3l2.3,2.3
		c1.1,1.1,2.5,1.7,4,1.7s3.1-0.7,4-1.7c1.1-1.1,1.6-2.5,1.7-3.9c0-1.5-0.5-3.1-1.7-4.1c-1.1-1.1-2.5-1.7-4-1.7s-2.9,0.5-4,1.7
		l-9.8,9.8C31.4,44.3,29.4,45.2,27.2,45.2z"/>
	<polyline class="st1" points="31,34.9 35.1,35.2 35.6,31.1 	"/>
	<polyline class="st1" points="42.9,38.6 38.7,38.3 38.3,42.4 	"/>
</g>
</svg>
